/vscmnt/brussel_pixiu_data/_data_brussel/112/vsc11236/PredSimResults/SUBJ11mtu3D/worker5.mot
version=1
nRows=10
nColumns=50
inDegrees=yes
endheader
                time	         pelvis_tilt	         pelvis_list	     pelvis_rotation	           pelvis_tx	           pelvis_ty	           pelvis_tz	       hip_flexion_r	     hip_adduction_r	      hip_rotation_r	        knee_angle_r	       ankle_angle_r	         mtp_angle_r	       hip_flexion_l	     hip_adduction_l	      hip_rotation_l	        knee_angle_l	       ankle_angle_l	         mtp_angle_l	    lumbar_extension	      lumbar_bending	     lumbar_rotation	 ercspn_r/activation	 intobl_r/activation	 extobl_r/activation	    abd_r/activation	    add_r/activation	hamstrings_r/activation	bifemsh_r/activation	glut_max_r/activation	iliopsoas_r/activation	rect_fem_r/activation	  vasti_r/activation	gastroc_r/activation	 soleus_r/activation	tib_ant_r/activation	 ercspn_l/activation	 intobl_l/activation	 extobl_l/activation	    abd_l/activation	    add_l/activation	hamstrings_l/activation	bifemsh_l/activation	glut_max_l/activation	iliopsoas_l/activation	rect_fem_l/activation	  vasti_l/activation	gastroc_l/activation	 soleus_l/activation	tib_ant_l/activation	
          1.98333659	        -13.34749033	          2.70288480	        -13.60076129	          2.18167025	          1.00063366	          0.00558632	         -3.16807987	         -5.69627313	        -26.24526678	          1.56091227	        -38.64046657	         60.14580636	         31.78932971	        -10.48814857	         -9.89627519	          8.28835600	        -55.84427896	         -0.23538145	        -12.67859517	          7.47143134	         -0.47034474	          0.47242750	          0.27949655	          0.16736302	          0.07734614	          0.01787789	          0.18895463	          0.90617298	          0.06495306	          0.95106397	          0.05492752	          0.29964326	          0.04833704	          0.04341415	          0.96316388	          0.86164076	          0.48933973	          0.65489281	          0.12949245	          0.28524585	          0.18418678	          0.42098176	          0.30400720	          0.77199574	          0.64575034	          0.66946327	          0.11755591	          0.05762024	          0.94089696	
          1.99655884	        -13.85622417	          3.66537539	        -14.05859950	          2.19956982	          0.99580924	         -0.00008995	         -3.19006326	         -7.24173780	        -26.19032910	          1.32636132	        -38.50911983	         60.13722177	         30.81355527	         -8.52102244	        -12.53905091	          9.13917848	        -53.45520869	          0.11483330	        -11.80037440	          7.17058244	         -1.38451897	          0.40130630	          0.24476326	          0.27500902	          0.06827840	          0.01465232	          0.17387684	          0.90267080	          0.06121832	          0.95399376	          0.04877267	          0.27894071	          0.03961202	          0.03558212	          0.94652255	          0.75381075	          0.43340983	          0.59924013	          0.17664961	          0.23375392	          0.19379069	          0.49028234	          0.24975979	          0.83704967	          0.59201174	          0.61979859	          0.35479252	          0.05454409	          0.78410112	
          2.00978108	        -14.40395556	          4.71628478	        -14.23302017	          2.21676430	          0.99150395	         -0.00582633	         -2.97168113	         -8.88522493	        -26.54007777	          0.81598851	        -38.51728295	         60.14684670	         30.13877027	         -6.93628698	        -14.43165441	          8.84613423	        -51.18329858	          3.72981289	        -10.98098921	          6.70487213	         -2.51017556	          0.35226480	          0.21562187	          0.34900283	          0.05595738	          0.02413847	          0.16058016	          0.89887579	          0.05315197	          0.95207113	          0.04548986	          0.25408770	          0.03246238	          0.02916311	          0.93823487	          0.69957255	          0.64004233	          0.63424587	          0.14475258	          0.19155761	          0.49493886	          0.63385543	          0.20466181	          0.91338959	          0.52250837	          0.56246074	          0.64716327	          0.14459908	          0.68857055	
          2.02300333	        -14.83341741	          6.22441650	        -14.51207230	          2.23256930	          0.98834853	         -0.01155108	         -2.27279909	        -11.18654199	        -26.84687750	         -0.34358161	        -38.53940320	         60.16052495	         29.26062565	         -5.09360132	        -15.37924654	          9.26210397	        -50.94000183	         10.49069677	        -10.46654610	          5.59069129	         -3.42926234	          0.29254419	          0.19288547	          0.32867921	          0.05568055	          0.03467548	          0.15860127	          0.91086006	          0.05971996	          0.95234184	          0.04096530	          0.22915909	          0.02972424	          0.02669891	          0.95901590	          0.75461403	          0.78052510	          0.63809558	          0.19093526	          0.15699843	          0.57292254	          0.67232459	          0.16770945	          0.89654293	          0.45841826	          0.51067714	          0.79553273	          0.13205994	          0.58355570	
          2.03622557	        -15.29023050	          8.02419402	        -14.78141255	          2.24670917	          0.98617507	         -0.01727498	         -1.00545989	        -13.89366116	        -27.26151146	         -2.06958215	        -38.67732201	         60.14124833	         28.64616491	         -3.18949557	        -15.41547153	          9.89991918	        -51.55268472	         16.98750508	        -10.14985522	          4.02566979	         -4.17875805	          0.24883030	          0.17131260	          0.31888242	          0.06247653	          0.04574310	          0.15453831	          0.92683078	          0.06706328	          0.95938981	          0.04403948	          0.20529882	          0.02913937	          0.03025533	          0.97037516	          0.81412946	          0.86340610	          0.56386115	          0.16712652	          0.13173976	          0.54094473	          0.70619972	          0.13745089	          0.88804354	          0.40332029	          0.45896187	          0.86653642	          0.10822288	          0.50240768	
          2.04944781	        -15.78639531	         10.06486907	        -14.87781967	          2.25929548	          0.98473388	         -0.02313445	          0.69580580	        -16.91923455	        -27.90095231	         -4.20555418	        -38.94224385	         60.03918705	         28.77898526	         -1.25229123	        -14.92868688	          9.72356563	        -52.07625599	         22.67215994	         -9.98818065	          2.05922695	         -4.92692134	          0.22584532	          0.15006694	          0.29060368	          0.09122329	          0.06371150	          0.14430640	          0.93443007	          0.06523139	          0.95978569	          0.04834931	          0.18543215	          0.03663443	          0.03313326	          0.97349723	          0.84629764	          0.89743605	          0.55147233	          0.16058459	          0.11364139	          0.52519429	          0.74326566	          0.11490641	          0.91450827	          0.35425718	          0.40818388	          0.89841827	          0.09061803	          0.44121174	
          2.06267006	        -16.16860068	         12.32270890	        -14.87889474	          2.27078790	          0.98407485	         -0.02888545	          2.55146007	        -20.25551972	        -28.63045503	         -6.51974307	        -39.49455420	         59.90888409	         29.37419690	          0.77579159	        -14.24337092	          9.01127126	        -52.80868993	         27.47615890	        -10.09497655	         -0.34031015	         -5.66826280	          0.22529550	          0.12725890	          0.25748641	          0.19597253	          0.07083342	          0.13482167	          0.93769811	          0.05645944	          0.95716355	          0.05226125	          0.17000728	          0.19982224	          0.03494294	          0.98019848	          0.87573586	          0.86750695	          0.49037827	          0.15765882	          0.10071162	          0.45381538	          0.81149662	          0.10680225	          0.93710237	          0.31108199	          0.35862599	          0.89807557	          0.08755239	          0.40242005	
          2.07589230	        -16.45942647	         14.79911006	        -14.82887788	          2.28166712	          0.98399465	         -0.03443255	          4.52602714	        -23.90452032	        -29.05437208	         -8.84547958	        -40.57260008	         59.91599368	         30.23725702	          2.93815833	        -13.44199005	          8.09888791	        -53.64217442	         31.06370336	        -10.36242645	         -3.14730539	         -6.41052788	          0.31599697	          0.10458630	          0.27667408	          0.27264100	          0.05967866	          0.23495318	          0.93279158	          0.04858965	          0.95818534	          0.06109535	          0.16213448	          0.53779888	          0.04916975	          0.95386981	          0.87697805	          0.81155793	          0.42051661	          0.16555392	          0.09561455	          0.39079805	          0.87054630	          0.11034804	          0.94664761	          0.27123096	          0.31309300	          0.80583951	          0.08772002	          0.62715774	
          2.08911455	        -16.65977544	         17.11522525	        -14.61816973	          2.29254547	          0.98447176	         -0.03990688	          6.33537680	        -27.44862711	        -28.90083841	        -10.98987661	        -42.29147250	         60.03306454	         31.20415153	          4.96768978	        -12.16081290	          6.85097289	        -54.01405947	         33.55954436	        -10.81971142	         -5.87620289	         -7.18335385	          0.55418101	          0.08571398	          0.49620783	          0.46687709	          0.05031708	          0.32742165	          0.92140158	          0.04412837	          0.95358086	          0.07255717	          0.16376609	          0.72002981	          0.15078091	          0.82413262	          0.88667746	          0.79801261	          0.35892578	          0.14941731	          0.08892641	          0.40467858	          0.90412701	          0.10297787	          0.94822067	          0.25404484	          0.27369106	          0.67961355	          0.08060180	          0.77803588	
          2.10233679	        -16.76586158	         18.95687042	        -14.18213293	          2.30406066	          0.98541435	         -0.04540451	          7.64604287	        -30.50150367	        -27.60811955	        -12.70619980	        -44.63209480	         60.16045901	         32.13753662	          6.70429852	        -10.38446014	          5.12800906	        -53.62816908	         35.43190105	        -11.45760005	         -8.11666093	         -7.89052952	          0.71875261	          0.08376903	          0.60550811	          0.55796023	          0.05683224	          0.43253683	          0.90506655	          0.06077717	          0.95238160	          0.08453492	          0.17588231	          0.81117492	          0.33584707	          0.70653569	          0.90555159	          0.70980591	          0.30353263	          0.13227853	          0.08148796	          0.64086688	          0.92077821	          0.08988796	          0.92554266	          0.21009686	          0.24158140	          0.57039969	          0.06873251	          0.85350665	
